<?xml version="1.0" encoding="UTF-8" standalone="no"?>
<svg
   xmlns:dc="http://purl.org/dc/elements/1.1/"
   xmlns:cc="http://creativecommons.org/ns#"
   xmlns:rdf="http://www.w3.org/1999/02/22-rdf-syntax-ns#"
   xmlns:svg="http://www.w3.org/2000/svg"
   xmlns="http://www.w3.org/2000/svg"
   id="svg8"
   version="1.1"
   viewBox="0 0 53.445832 42.333334"
   height="160"
   width="202">
  <defs
     id="defs2" />
  <metadata
     id="metadata5">
    <rdf:RDF>
      <cc:Work
         rdf:about="">
        <dc:format>image/svg+xml</dc:format>
        <dc:type
           rdf:resource="http://purl.org/dc/dcmitype/StillImage" />
        <dc:title></dc:title>
      </cc:Work>
    </rdf:RDF>
  </metadata>
  <g
     transform="translate(-3.1460733,-248.26907)"
     id="layer1">
    <g
       transform="matrix(1,0,0,0.98462594,10.467578,1.2282704)"
       id="text3751"
       style="font-style:normal;font-weight:normal;font-size:10.58333302px;line-height:1.25;font-family:sans-serif;letter-spacing:0px;word-spacing:0px;fill:#000000;fill-opacity:1;stroke:none;stroke-width:0.26458332"
       aria-label="J" />
    <g
       aria-label="J"
       style="font-style:normal;font-weight:normal;font-size:10.58333302px;line-height:1.25;font-family:sans-serif;letter-spacing:0px;word-spacing:0px;fill:#000000;fill-opacity:1;stroke:none;stroke-width:0.26458332"
       id="g3765"
       transform="matrix(1,0,0,0.98462594,-15.837675,-3.6736071)" />
    <g
       aria-label="V"
       transform="matrix(0.24283425,0,0,0.26909686,52.09681,-5.236462)"
       style="font-style:normal;font-weight:normal;font-size:40px;line-height:1.25;font-family:sans-serif;letter-spacing:0px;word-spacing:0px;fill:none;fill-opacity:1;stroke:#000000;stroke-width:0.39119267;stroke-miterlimit:4;stroke-dasharray:none;stroke-opacity:1"
       id="g4645" />
    <g
       aria-label="J"
       transform="matrix(1.4150305,0,0,1.4150305,-171.13672,0.3078214)"
       style="font-style:normal;font-weight:normal;font-size:40px;line-height:1.25;font-family:sans-serif;letter-spacing:0px;word-spacing:0px;fill:none;fill-opacity:1;stroke:#ffffff;stroke-width:0.37795275;stroke-linejoin:round;stroke-miterlimit:4;stroke-dasharray:none;stroke-opacity:1"
       id="g4641">
      <path
         id="path4639"
         transform="translate(-161.49576,17.664967)"
         d="m 297.5957,157.9668 v 18.49609 c 0,2.31771 -0.26692,3.84766 -0.80078,4.58984 -0.53385,0.72917 -1.44531,1.09375 -2.73437,1.09375 -1.27604,0 -2.22657,-0.51432 -2.85157,-1.54296 -0.41664,-0.67709 -0.65752,-1.83595 -0.72265,-3.47657 l -5.44922,0.625 c 0.013,3.0599 0.78125,5.38412 2.30469,6.97266 1.52344,1.57552 3.69791,2.36328 6.52343,2.36328 2.40886,0 4.34896,-0.50131 5.82032,-1.50391 1.47135,-1.01562 2.48697,-2.35677 3.04687,-4.02343 0.41667,-1.27604 0.625,-3.09896 0.625,-5.46875 v -0.26172 l 3.63086,11.25781 h 5.66406 l 9.41211,-29.12109 h -5.6289 L 310,179.51953 303.35742,157.99219 v -0.0254 h -0.008 z"
         style="font-style:normal;font-variant:normal;font-weight:bold;font-stretch:normal;font-size:40px;font-family:Arial;-inkscape-font-specification:'Arial, Bold';font-variant-ligatures:normal;font-variant-caps:normal;font-variant-numeric:normal;font-feature-settings:normal;text-align:start;writing-mode:lr-tb;text-anchor:start;fill:none;stroke:#ffffff;stroke-width:0.37795275;stroke-linejoin:bevel;stroke-miterlimit:4;stroke-dasharray:none;stroke-opacity:1" />
    </g>
    <g
       aria-label="J"
       transform="matrix(1.4150305,0,0,1.4150305,-171.14346,0.30784545)"
       style="font-style:normal;font-weight:normal;font-size:40px;line-height:1.25;font-family:sans-serif;letter-spacing:0px;word-spacing:0px;fill:#ffffff;fill-opacity:1;stroke:none"
       id="g4656">
      <path
         style="font-style:normal;font-variant:normal;font-weight:bold;font-stretch:normal;font-size:40px;font-family:Arial;-inkscape-font-specification:'Arial, Bold';font-variant-ligatures:normal;font-variant-caps:normal;font-variant-numeric:normal;font-feature-settings:normal;text-align:start;writing-mode:lr-tb;text-anchor:start;fill:#ffffff;fill-opacity:1"
         d="m 332.60742,158.39844 v 18.49609 c 0,2.31771 -0.26693,3.84766 -0.80078,4.58985 -0.53385,0.72916 -1.44531,1.09374 -2.73437,1.09374 -1.27604,0 -2.22657,-0.51432 -2.85157,-1.54296 -0.41664,-0.67709 -0.65752,-1.83595 -0.72265,-3.47657 l -5.44922,0.625 c 0.013,3.0599 0.78125,5.38412 2.30469,6.97266 1.52344,1.57552 3.69791,2.36328 6.52343,2.36328 2.40886,0 4.34896,-0.50131 5.82032,-1.50391 1.47135,-1.01562 2.48697,-2.35677 3.04687,-4.02343 0.41667,-1.27604 0.625,-3.09896 0.625,-5.46875 v -0.26172 z m 5.76172,17.86328 L 342,187.51953 h 5.66406 l 9.41211,-29.12109 h -5.6289 l -6.43555,21.55273 -6.64258,-21.52734 z m 0,-17.83789 v -0.0254 h -0.008 z"
         transform="translate(-196.50729,17.23331)"
         id="path4654" />
    </g>
    <g
       aria-label="V"
       transform="matrix(1.2987132,0,0,1.4391695,-155.8636,6.8666878)"
       style="font-style:normal;font-weight:normal;font-size:40px;line-height:1.25;font-family:sans-serif;letter-spacing:0px;word-spacing:0px;fill:#000000;fill-opacity:1;stroke:none"
       id="g4660" />
  </g>
</svg>
