<?xml version="1.0" encoding="UTF-8" standalone="no"?>
<svg
   xmlns:dc="http://purl.org/dc/elements/1.1/"
   xmlns:cc="http://creativecommons.org/ns#"
   xmlns:rdf="http://www.w3.org/1999/02/22-rdf-syntax-ns#"
   xmlns:svg="http://www.w3.org/2000/svg"
   xmlns="http://www.w3.org/2000/svg"
   width="202"
   height="160"
   viewBox="0 0 53.445832 42.333335"
   version="1.1"
   id="svg8">
  <defs
     id="defs2" />
  <metadata
     id="metadata5">
    <rdf:RDF>
      <cc:Work
         rdf:about="">
        <dc:format>image/svg+xml</dc:format>
        <dc:type
           rdf:resource="http://purl.org/dc/dcmitype/StillImage" />
        <dc:title></dc:title>
      </cc:Work>
    </rdf:RDF>
  </metadata>
  <g
     id="layer1"
     transform="matrix(1.0039791,0,0,1.1285605,-0.1063305,-290.12795)">
    <g
       aria-label="J"
       style="font-style:normal;font-weight:normal;font-size:10.58333302px;line-height:1.25;font-family:sans-serif;letter-spacing:0px;word-spacing:0px;fill:#000000;fill-opacity:1;stroke:none;stroke-width:0.26458332"
       id="text3751"
       transform="matrix(1,0,0,0.98462594,10.467578,1.2282704)" />
    <g
       id="g4574">
      <path
         style="font-style:normal;font-variant:normal;font-weight:bold;font-stretch:normal;font-size:10.58333302px;line-height:1.25;font-family:Georgia;-inkscape-font-specification:'Georgia, Bold';font-variant-ligatures:normal;font-variant-caps:normal;font-variant-numeric:normal;font-feature-settings:normal;text-align:start;letter-spacing:0px;word-spacing:0px;writing-mode:lr-tb;text-anchor:start;fill:none;fill-opacity:1;stroke:#ffffff;stroke-width:0.49249139;stroke-linejoin:bevel;stroke-miterlimit:4;stroke-dasharray:none;stroke-opacity:1"
         d="m 10.461592,257.57047 v 1.95455 c 0.0197,0.003 0.05383,0.01 0.07373,0.0148 v 0.0197 c 0.729567,0.10195 1.314923,0.22064 1.756057,0.35657 0.441125,0.11869 0.950144,0.33932 1.527019,0.66171 0.797442,0.45801 1.374312,0.90771 1.730605,1.34883 0.0261,0.0295 0.05265,0.0803 0.07895,0.1118 0.06097,0.27826 0.101749,0.57754 0.101749,0.9213 v 20.07257 c 0,2.90683 -0.585346,5.07857 -1.756057,6.51527 -1.153745,1.43669 -2.748629,2.15563 -4.7846426,2.15563 -0.5259611,0 -1.0434563,-0.11721 -1.552456,-0.35114 -0.5090095,-0.23394 -0.8398554,-0.51594 -0.9925573,-0.85004 v -0.32554 c 0.9671103,-0.76848 1.8239321,-1.60473 2.5704604,-2.50683 0.7635094,-0.91884 1.1452645,-1.91362 1.1452645,-2.98277 0,-1.25295 -0.441125,-2.30383 -1.3234036,-3.15584 -0.8653172,-0.85201 -2.0360136,-1.28013 -3.5121383,-1.28013 -1.5609367,0 -2.7910275,0.51046 -3.6902774,1.52953 -0.88226879,1.01906 -1.32340318,2.30461 -1.32340318,3.85827 0,2.62282 0.96710038,4.68596 2.90132098,6.18949 1.9511721,1.50352 4.5131664,2.25743 7.6859635,2.25743 1.832413,0 3.554537,-0.26102 5.166382,-0.77878 1.611851,-0.5012 3.07099,-1.25255 4.377431,-2.25487 1.289486,-1.01911 2.299009,-2.28092 3.028576,-3.78445 0.602972,-1.21438 0.947864,-2.5317 1.063821,-3.94225 1.473593,3.60248 2.963109,7.23687 4.405429,10.77055 h 5.115488 c 1.15375,-2.81651 2.358394,-5.76023 3.613932,-8.83126 1.272509,-3.07098 2.451701,-5.89596 3.537575,-8.47489 1.221605,-2.86739 2.30749,-5.4209 3.257624,-7.66051 0.950144,-2.25659 1.688191,-3.97022 2.214167,-5.14097 0.39025,-0.84832 0.780476,-1.51003 1.170711,-1.98508 0.407192,-0.492 0.975596,-0.95017 1.705163,-1.3743 0.542942,-0.32258 1.068918,-0.55991 1.577913,-0.71264 0.50901,-0.15267 1.043456,-0.25461 1.603365,-0.30534 V 257.5748 H 38.30148 v 2.03601 c 2.103879,0.16942 3.546066,0.44127 4.326527,0.81438 0.780476,0.35607 1.170716,0.80592 1.170716,1.34889 0,0.47525 -0.144201,1.18769 -0.432653,2.1378 -0.271462,0.93318 -0.619288,1.94269 -1.043457,3.02858 -0.865317,2.2396 -1.86636,4.81859 -3.003123,7.73689 -1.136784,2.91826 -2.561995,6.48976 -4.275638,10.7145 -2.799523,-6.9394 -4.911883,-12.09732 -6.337094,-15.47374 -1.425211,-3.39336 -2.409287,-5.83656 -2.95223,-7.32965 -0.11869,-0.35656 -0.212066,-0.63625 -0.279932,-0.83984 -0.05097,-0.22064 -0.07634,-0.42404 -0.07634,-0.61079 0,-0.37331 0.322385,-0.67865 0.967101,-0.91623 0.661711,-0.25462 1.908768,-0.492 3.741186,-0.71259 V 257.5748 H 29.75279 10.535353 Z"
         id="path3753" />
      <g
         transform="matrix(4.9249139,0,0,4.9249139,-303.47418,17.478353)"
         aria-label="V"
         style="font-style:normal;font-weight:normal;font-size:10.58333302px;line-height:1.25;font-family:sans-serif;letter-spacing:0px;word-spacing:0px;fill:#ffffff;fill-opacity:1;stroke:none;stroke-width:0.26458332"
         id="g3761">
        <path
           style="font-style:normal;font-variant:normal;font-weight:bold;font-stretch:normal;font-size:10.58333302px;font-family:Georgia;-inkscape-font-specification:'Georgia, Bold';font-variant-ligatures:normal;font-variant-caps:normal;font-variant-numeric:normal;font-feature-settings:normal;text-align:start;writing-mode:lr-tb;text-anchor:start;stroke-width:0.26458332;fill:#ffffff;fill-opacity:1"
           d="m 64.793441,49.656879 c 0.01238,0.0565 0.02067,0.117269 0.02067,0.187068 v 4.075721 c 0,0.59023 -0.118853,1.031193 -0.356565,1.322917 -0.234268,0.291722 -0.558107,0.437698 -0.971519,0.437698 -0.106796,0 -0.211873,-0.02381 -0.315224,-0.07131 -0.103354,-0.04749 -0.170532,-0.104756 -0.201539,-0.172598 v -0.06615 c 0.196372,-0.156038 0.370348,-0.325837 0.521931,-0.509013 0.15503,-0.186568 0.232545,-0.388551 0.232545,-0.605647 0,-0.25441 -0.08957,-0.467791 -0.268716,-0.640789 -0.175702,-0.172998 -0.413412,-0.259932 -0.713137,-0.259932 -0.316947,0 -0.566717,0.103656 -0.749308,0.310576 -0.179144,0.20692 -0.268716,0.467944 -0.268716,0.783415 0,0.532564 0.196368,0.951479 0.58911,1.256771 0.396185,0.305289 0.916395,0.458369 1.560629,0.458369 0.372071,0 0.721747,-0.05298 1.049031,-0.158131 0.327284,-0.101764 0.623562,-0.254325 0.888833,-0.457853 0.261829,-0.20692 0.466812,-0.463137 0.61495,-0.768427 0.122433,-0.246578 0.192463,-0.514059 0.216009,-0.80047 -0.193562,-0.473194 -0.38204,-0.935858 -0.578261,-1.414899 -0.499538,-1.219563 -0.850937,-2.067058 -1.054197,-2.542482 -0.07368,-0.160166 -0.111722,-0.312202 -0.182419,-0.397906 z m 1.848992,4.322215 c 0.299212,0.731483 0.601657,1.469437 0.894519,2.186948 h 1.038696 c 0.234267,-0.571887 0.478869,-1.169609 0.733806,-1.793172 0.258381,-0.623562 0.497816,-1.19717 0.718301,-1.720826 0.248047,-0.582221 0.468535,-1.100709 0.661459,-1.555461 0.192926,-0.458198 0.342786,-0.806151 0.449585,-1.043864 0.07924,-0.172254 0.158475,-0.306612 0.237712,-0.403076 0.08268,-0.09991 0.198094,-0.192924 0.346231,-0.279051 0.110244,-0.06546 0.217043,-0.113689 0.320395,-0.144695 0.103354,-0.03101 0.211873,-0.05168 0.325562,-0.06201 v -0.41341 H 69.3973 v 0.413411 c 0.427191,0.03445 0.720026,0.08957 0.878498,0.165365 0.158475,0.07234 0.237712,0.163639 0.237712,0.273883 0,0.09647 -0.02928,0.241157 -0.08785,0.434084 -0.05512,0.189478 -0.125746,0.394462 -0.211873,0.614949 -0.175702,0.454753 -0.378963,0.978406 -0.609783,1.570964 -0.230822,0.592555 -0.52021,1.317747 -0.868164,2.175576 -0.568441,-1.409044 -0.997355,-2.456352 -1.286743,-3.141927 -0.289388,-0.68902 -0.489204,-1.185111 -0.599448,-1.488281 -0.0241,-0.07235 -0.04306,-0.129191 -0.05684,-0.170532 -0.01035,-0.04479 -0.0325,-0.09016 -0.0155,-0.124024 l 0.07359,-0.146569 c -0.018,-0.02338 -0.08279,-0.0088 -0.140255,0.140328 -0.03789,0.09498 -0.05684,0.203446 -0.05684,0.325561 v 3.979088 c 0,0.07046 -0.0058,0.138506 -0.01138,0.206703 z"
           id="path3759" />
      </g>
    </g>
    <g
       transform="matrix(1,0,0,0.98462594,-15.837675,-3.6736071)"
       id="g3765"
       style="font-style:normal;font-weight:normal;font-size:10.58333302px;line-height:1.25;font-family:sans-serif;letter-spacing:0px;word-spacing:0px;fill:#000000;fill-opacity:1;stroke:none;stroke-width:0.26458332"
       aria-label="J" />
    <g
       id="g4645"
       style="font-style:normal;font-weight:normal;font-size:40px;line-height:1.25;font-family:sans-serif;letter-spacing:0px;word-spacing:0px;fill:none;fill-opacity:1;stroke:#000000;stroke-width:0.39119267;stroke-miterlimit:4;stroke-dasharray:none;stroke-opacity:1"
       transform="matrix(0.24283425,0,0,0.26909686,52.09681,-5.236462)"
       aria-label="V" />
  </g>
</svg>
