<?xml version="1.0" encoding="UTF-8" standalone="no"?>
<!-- Created with Inkscape (http://www.inkscape.org/) -->

<svg
   xmlns:dc="http://purl.org/dc/elements/1.1/"
   xmlns:cc="http://creativecommons.org/ns#"
   xmlns:rdf="http://www.w3.org/1999/02/22-rdf-syntax-ns#"
   xmlns:svg="http://www.w3.org/2000/svg"
   xmlns="http://www.w3.org/2000/svg"
   xmlns:sodipodi="http://sodipodi.sourceforge.net/DTD/sodipodi-0.dtd"
   xmlns:inkscape="http://www.inkscape.org/namespaces/inkscape"
   width="202"
   height="160"
   viewBox="0 0 53.445832 42.333334"
   version="1.1"
   id="svg8"
   inkscape:version="0.92.4 (5da689c313, 2019-01-14)"
   sodipodi:docname="JV-logo-sans-serif.svg">
  <defs
     id="defs2" />
  <sodipodi:namedview
     id="base"
     pagecolor="#ffffff"
     bordercolor="#666666"
     borderopacity="1.0"
     inkscape:pageopacity="0.0"
     inkscape:pageshadow="2"
     inkscape:zoom="2.66"
     inkscape:cx="84.773496"
     inkscape:cy="76.051589"
     inkscape:document-units="mm"
     inkscape:current-layer="layer1"
     showgrid="false"
     inkscape:window-width="1920"
     inkscape:window-height="1017"
     inkscape:window-x="-8"
     inkscape:window-y="-8"
     inkscape:window-maximized="1"
     showguides="true"
     inkscape:guide-bbox="true"
     inkscape:object-nodes="true"
     inkscape:snap-global="false"
     inkscape:snap-bbox="false"
     inkscape:snap-text-baseline="false"
     units="px"
     fit-margin-top="0"
     fit-margin-left="0"
     fit-margin-right="0"
     fit-margin-bottom="0"
     inkscape:pagecheckerboard="true">
    <inkscape:grid
       type="xygrid"
       id="grid4627"
       originx="-81.592576"
       originy="-253.66478" />
  </sodipodi:namedview>
  <metadata
     id="metadata5">
    <rdf:RDF>
      <cc:Work
         rdf:about="">
        <dc:format>image/svg+xml</dc:format>
        <dc:type
           rdf:resource="http://purl.org/dc/dcmitype/StillImage" />
        <dc:title></dc:title>
      </cc:Work>
    </rdf:RDF>
  </metadata>
  <g
     inkscape:label="Calque 1"
     inkscape:groupmode="layer"
     id="layer1"
     transform="translate(-3.1460733,-248.26907)">
    <g
       aria-label="J"
       style="font-style:normal;font-weight:normal;font-size:10.58333302px;line-height:1.25;font-family:sans-serif;letter-spacing:0px;word-spacing:0px;fill:#000000;fill-opacity:1;stroke:none;stroke-width:0.26458332"
       id="text3751"
       transform="matrix(1,0,0,0.98462594,10.467578,1.2282704)"
       inkscape:label="text3751" />
    <g
       transform="matrix(1,0,0,0.98462594,-15.837675,-3.6736071)"
       id="g3765"
       style="font-style:normal;font-weight:normal;font-size:10.58333302px;line-height:1.25;font-family:sans-serif;letter-spacing:0px;word-spacing:0px;fill:#000000;fill-opacity:1;stroke:none;stroke-width:0.26458332"
       aria-label="J" />
    <g
       id="g4645"
       style="font-style:normal;font-weight:normal;font-size:40px;line-height:1.25;font-family:sans-serif;letter-spacing:0px;word-spacing:0px;fill:none;fill-opacity:1;stroke:#000000;stroke-width:0.39119267;stroke-miterlimit:4;stroke-dasharray:none;stroke-opacity:1"
       transform="matrix(0.24283425,0,0,0.26909686,52.09681,-5.236462)"
       aria-label="V" />
    <g
       id="g4641"
       style="font-style:normal;font-weight:normal;font-size:40px;line-height:1.25;font-family:sans-serif;letter-spacing:0px;word-spacing:0px;fill:none;fill-opacity:1;stroke:#000000;stroke-width:0.37795275;stroke-linejoin:round;stroke-miterlimit:4;stroke-dasharray:none;stroke-opacity:1"
       transform="matrix(1.4150305,0,0,1.4150305,-171.13672,0.3078214)"
       aria-label="J">
      <path
         style="font-style:normal;font-variant:normal;font-weight:bold;font-stretch:normal;font-size:40px;font-family:Arial;-inkscape-font-specification:'Arial, Bold';font-variant-ligatures:normal;font-variant-caps:normal;font-variant-numeric:normal;font-feature-settings:normal;text-align:start;writing-mode:lr-tb;text-anchor:start;fill:none;stroke:#000000;stroke-width:0.37795275;stroke-linejoin:bevel;stroke-miterlimit:4;stroke-dasharray:none;stroke-opacity:1"
         d="m 297.5957,157.9668 v 18.49609 c 0,2.31771 -0.26692,3.84766 -0.80078,4.58984 -0.53385,0.72917 -1.44531,1.09375 -2.73437,1.09375 -1.27604,0 -2.22657,-0.51432 -2.85157,-1.54296 -0.41664,-0.67709 -0.65752,-1.83595 -0.72265,-3.47657 l -5.44922,0.625 c 0.013,3.0599 0.78125,5.38412 2.30469,6.97266 1.52344,1.57552 3.69791,2.36328 6.52343,2.36328 2.40886,0 4.34896,-0.50131 5.82032,-1.50391 1.47135,-1.01562 2.48697,-2.35677 3.04687,-4.02343 0.41667,-1.27604 0.625,-3.09896 0.625,-5.46875 v -0.26172 l 3.63086,11.25781 h 5.66406 l 9.41211,-29.12109 h -5.6289 L 310,179.51953 303.35742,157.99219 v -0.0254 h -0.008 z"
         transform="translate(-161.49576,17.664967)"
         id="path4639"
         inkscape:connector-curvature="0" />
    </g>
    <g
       id="g4656"
       style="font-style:normal;font-weight:normal;font-size:40px;line-height:1.25;font-family:sans-serif;letter-spacing:0px;word-spacing:0px;fill:#000000;fill-opacity:1;stroke:none"
       transform="matrix(1.4150305,0,0,1.4150305,-171.14346,0.30784545)"
       aria-label="J">
      <path
         inkscape:connector-curvature="0"
         id="path4654"
         transform="translate(-196.50729,17.23331)"
         d="m 332.60742,158.39844 v 18.49609 c 0,2.31771 -0.26693,3.84766 -0.80078,4.58985 -0.53385,0.72916 -1.44531,1.09374 -2.73437,1.09374 -1.27604,0 -2.22657,-0.51432 -2.85157,-1.54296 -0.41664,-0.67709 -0.65752,-1.83595 -0.72265,-3.47657 l -5.44922,0.625 c 0.013,3.0599 0.78125,5.38412 2.30469,6.97266 1.52344,1.57552 3.69791,2.36328 6.52343,2.36328 2.40886,0 4.34896,-0.50131 5.82032,-1.50391 1.47135,-1.01562 2.48697,-2.35677 3.04687,-4.02343 0.41667,-1.27604 0.625,-3.09896 0.625,-5.46875 v -0.26172 z m 5.76172,17.86328 L 342,187.51953 h 5.66406 l 9.41211,-29.12109 h -5.6289 l -6.43555,21.55273 -6.64258,-21.52734 z m 0,-17.83789 v -0.0254 h -0.008 z"
         style="font-style:normal;font-variant:normal;font-weight:bold;font-stretch:normal;font-size:40px;font-family:Arial;-inkscape-font-specification:'Arial, Bold';font-variant-ligatures:normal;font-variant-caps:normal;font-variant-numeric:normal;font-feature-settings:normal;text-align:start;writing-mode:lr-tb;text-anchor:start" />
    </g>
    <g
       id="g4660"
       style="font-style:normal;font-weight:normal;font-size:40px;line-height:1.25;font-family:sans-serif;letter-spacing:0px;word-spacing:0px;fill:#000000;fill-opacity:1;stroke:none"
       transform="matrix(1.2987132,0,0,1.4391695,-155.8636,6.8666878)"
       aria-label="V" />
  </g>
</svg>
