<?xml version="1.0" encoding="UTF-8" standalone="no"?>
<svg
   xmlns:dc="http://purl.org/dc/elements/1.1/"
   xmlns:cc="http://creativecommons.org/ns#"
   xmlns:rdf="http://www.w3.org/1999/02/22-rdf-syntax-ns#"
   xmlns:svg="http://www.w3.org/2000/svg"
   xmlns="http://www.w3.org/2000/svg"
   xmlns:sodipodi="http://sodipodi.sourceforge.net/DTD/sodipodi-0.dtd"
   xmlns:inkscape="http://www.inkscape.org/namespaces/inkscape"
   id="svg8"
   version="1.1"
   viewBox="0 0 53.445832 42.333335"
   height="160"
   width="202"
   sodipodi:docname="JV-logo-serif.svg"
   inkscape:version="0.92.4 (5da689c313, 2019-01-14)">
  <sodipodi:namedview
     pagecolor="#ffffff"
     bordercolor="#666666"
     borderopacity="1"
     objecttolerance="10"
     gridtolerance="10"
     guidetolerance="10"
     inkscape:pageopacity="0"
     inkscape:pageshadow="2"
     inkscape:window-width="1259"
     inkscape:window-height="577"
     id="namedview21"
     showgrid="false"
     inkscape:snap-global="false"
     inkscape:zoom="2.65625"
     inkscape:cx="101.09412"
     inkscape:cy="80"
     inkscape:window-x="403"
     inkscape:window-y="504"
     inkscape:window-maximized="0"
     inkscape:current-layer="svg8" />
  <defs
     id="defs2" />
  <metadata
     id="metadata5">
    <rdf:RDF>
      <cc:Work
         rdf:about="">
        <dc:format>image/svg+xml</dc:format>
        <dc:type
           rdf:resource="http://purl.org/dc/dcmitype/StillImage" />
        <dc:title />
      </cc:Work>
    </rdf:RDF>
  </metadata>
  <g
     transform="matrix(1.0039791,0,0,1.1285605,-0.1063305,-290.12795)"
     id="layer1">
    <g
       transform="matrix(1,0,0,0.98462594,10.467578,1.2282704)"
       id="text3751"
       style="font-style:normal;font-weight:normal;font-size:10.58333302px;line-height:1.25;font-family:sans-serif;letter-spacing:0px;word-spacing:0px;fill:#000000;fill-opacity:1;stroke:none;stroke-width:0.26458332"
       aria-label="J" />
    <g
       transform="matrix(4.9249139,0,0,4.9249139,-190.51195,-1021.3164)"
       id="g4756">
      <path
         id="path3753"
         d="m 40.807524,259.677 v 0.39687 c 0.004,5.3e-4 0.01093,0.002 0.01497,0.003 v 0.004 c 0.148138,0.0207 0.266994,0.0448 0.356566,0.0724 0.08957,0.0241 0.192926,0.0689 0.31006,0.13436 0.16192,0.093 0.279053,0.18431 0.351398,0.27388 0.0053,0.006 0.01069,0.0163 0.01603,0.0227 0.01238,0.0565 0.02066,0.11727 0.02066,0.18707 v 4.07572 c 0,0.59023 -0.118854,1.0312 -0.356566,1.32292 -0.234267,0.29172 -0.558107,0.4377 -0.971518,0.4377 -0.106796,0 -0.211873,-0.0238 -0.315225,-0.0713 -0.103354,-0.0475 -0.170532,-0.10476 -0.201538,-0.1726 v -0.0661 c 0.196371,-0.15604 0.370348,-0.32584 0.52193,-0.50901 0.15503,-0.18657 0.232545,-0.38856 0.232545,-0.60565 0,-0.25441 -0.08957,-0.46779 -0.268716,-0.64079 -0.175702,-0.173 -0.413411,-0.25993 -0.713137,-0.25993 -0.316947,0 -0.566716,0.10365 -0.749308,0.31057 -0.179144,0.20692 -0.268716,0.46795 -0.268716,0.78342 0,0.53256 0.196369,0.95148 0.589111,1.25677 0.396184,0.30529 0.916395,0.45837 1.560629,0.45837 0.37207,0 0.721746,-0.053 1.04903,-0.15813 0.327285,-0.10177 0.623562,-0.25433 0.888834,-0.45785 0.261829,-0.20693 0.466812,-0.46314 0.61495,-0.76843 0.122433,-0.24658 0.192463,-0.51406 0.216008,-0.80047 0.299212,0.73148 0.601657,1.46944 0.894519,2.18695 h 1.038696 c 0.234268,-0.57189 0.47887,-1.16961 0.733806,-1.79318 0.258382,-0.62356 0.497816,-1.19717 0.718302,-1.72082 0.248046,-0.58222 0.468534,-1.10071 0.661458,-1.55546 0.192926,-0.4582 0.342786,-0.80615 0.449585,-1.04387 0.07924,-0.17225 0.158475,-0.30661 0.237712,-0.40307 0.08268,-0.0999 0.198094,-0.19293 0.346232,-0.27905 0.110244,-0.0655 0.217043,-0.11369 0.320394,-0.1447 0.103354,-0.031 0.211873,-0.0517 0.325562,-0.062 v -0.41341 h -2.971395 v 0.41341 c 0.427191,0.0344 0.720026,0.0896 0.878498,0.16536 0.158475,0.0723 0.237713,0.16364 0.237713,0.27389 0,0.0965 -0.02928,0.24116 -0.08785,0.43408 -0.05512,0.18948 -0.125746,0.39446 -0.211873,0.61495 -0.175702,0.45475 -0.378963,0.97841 -0.609782,1.57097 -0.230823,0.59255 -0.520211,1.31774 -0.868165,2.17557 -0.568441,-1.40904 -0.997354,-2.45635 -1.286742,-3.14193 -0.289388,-0.68902 -0.489204,-1.18511 -0.599448,-1.48828 -0.0241,-0.0724 -0.04306,-0.12919 -0.05684,-0.17053 -0.01035,-0.0448 -0.0155,-0.0861 -0.0155,-0.12402 0,-0.0758 0.06546,-0.1378 0.196369,-0.18604 0.13436,-0.0517 0.387574,-0.0999 0.759645,-0.14469 v -0.39274 h -0.07183 -3.902086 z"
         style="font-style:normal;font-variant:normal;font-weight:bold;font-stretch:normal;font-size:10.58333302px;line-height:1.25;font-family:Georgia;-inkscape-font-specification:'Georgia, Bold';font-variant-ligatures:normal;font-variant-caps:normal;font-variant-numeric:normal;font-feature-settings:normal;text-align:start;letter-spacing:0px;word-spacing:0px;writing-mode:lr-tb;text-anchor:start;fill:none;fill-opacity:1;stroke:#000000;stroke-width:0.1;stroke-linejoin:bevel;stroke-miterlimit:4;stroke-dasharray:none;stroke-opacity:1"
         inkscape:connector-curvature="0" />
      <g
         id="g3761"
         style="font-style:normal;font-weight:normal;font-size:10.58333302px;line-height:1.25;font-family:sans-serif;letter-spacing:0px;word-spacing:0px;fill:#000000;fill-opacity:1;stroke:none;stroke-width:0.26458332"
         aria-label="V"
         transform="translate(-22.936894,210.92648)">
        <path
           id="path3759"
           d="m 64.793441,49.656879 c 0.01238,0.0565 0.02067,0.117269 0.02067,0.187068 v 4.075721 c 0,0.59023 -0.118853,1.031193 -0.356565,1.322917 -0.234268,0.291722 -0.558107,0.437698 -0.971519,0.437698 -0.106796,0 -0.211873,-0.02381 -0.315224,-0.07131 -0.103354,-0.04749 -0.170532,-0.104756 -0.201539,-0.172598 v -0.06615 c 0.196372,-0.156038 0.370348,-0.325837 0.521931,-0.509013 0.15503,-0.186568 0.232545,-0.388551 0.232545,-0.605647 0,-0.25441 -0.08957,-0.467791 -0.268716,-0.640789 -0.175702,-0.172998 -0.413412,-0.259932 -0.713137,-0.259932 -0.316947,0 -0.566717,0.103656 -0.749308,0.310576 -0.179144,0.20692 -0.268716,0.467944 -0.268716,0.783415 0,0.532564 0.196368,0.951479 0.58911,1.256771 0.396185,0.305289 0.916395,0.458369 1.560629,0.458369 0.372071,0 0.721747,-0.05298 1.049031,-0.158131 0.327284,-0.101764 0.623562,-0.254325 0.888833,-0.457853 0.261829,-0.20692 0.466812,-0.463137 0.61495,-0.768427 0.122433,-0.246578 0.192463,-0.514059 0.216009,-0.80047 -0.193562,-0.473194 -0.38204,-0.935858 -0.578261,-1.414899 -0.499538,-1.219563 -0.850937,-2.067058 -1.054197,-2.542482 -0.07368,-0.160166 -0.111722,-0.312202 -0.182419,-0.397906 z m 1.848992,4.322215 c 0.299212,0.731483 0.601657,1.469437 0.894519,2.186948 h 1.038696 c 0.234267,-0.571887 0.478869,-1.169609 0.733806,-1.793172 0.258381,-0.623562 0.497816,-1.19717 0.718301,-1.720826 0.248047,-0.582221 0.468535,-1.100709 0.661459,-1.555461 0.192926,-0.458198 0.342786,-0.806151 0.449585,-1.043864 0.07924,-0.172254 0.158475,-0.306612 0.237712,-0.403076 0.08268,-0.09991 0.198094,-0.192924 0.346231,-0.279051 0.110244,-0.06546 0.217043,-0.113689 0.320395,-0.144695 0.103354,-0.03101 0.211873,-0.05168 0.325562,-0.06201 v -0.41341 H 69.3973 v 0.413411 c 0.427191,0.03445 0.720026,0.08957 0.878498,0.165365 0.158475,0.07234 0.237712,0.163639 0.237712,0.273883 0,0.09647 -0.02928,0.241157 -0.08785,0.434084 -0.05512,0.189478 -0.125746,0.394462 -0.211873,0.614949 -0.175702,0.454753 -0.378963,0.978406 -0.609783,1.570964 -0.230822,0.592555 -0.52021,1.317747 -0.868164,2.175576 -0.568441,-1.409044 -0.997355,-2.456352 -1.286743,-3.141927 -0.289388,-0.68902 -0.489204,-1.185111 -0.599448,-1.488281 -0.0241,-0.07235 -0.04306,-0.129191 -0.05684,-0.170532 -0.01035,-0.04479 -0.0325,-0.09016 -0.0155,-0.124024 l 0.07359,-0.146569 c -0.018,-0.02338 -0.08279,-0.0088 -0.140255,0.140328 -0.03789,0.09498 -0.05684,0.203446 -0.05684,0.325561 v 3.979088 c 0,0.07046 -0.0058,0.138506 -0.01138,0.206703 z"
           style="font-style:normal;font-variant:normal;font-weight:bold;font-stretch:normal;font-size:10.58333302px;font-family:Georgia;-inkscape-font-specification:'Georgia, Bold';font-variant-ligatures:normal;font-variant-caps:normal;font-variant-numeric:normal;font-feature-settings:normal;text-align:start;writing-mode:lr-tb;text-anchor:start;stroke-width:0.26458332"
           inkscape:connector-curvature="0" />
      </g>
    </g>
    <g
       aria-label="J"
       style="font-style:normal;font-weight:normal;font-size:10.58333302px;line-height:1.25;font-family:sans-serif;letter-spacing:0px;word-spacing:0px;fill:#000000;fill-opacity:1;stroke:none;stroke-width:0.26458332"
       id="g3765"
       transform="matrix(1,0,0,0.98462594,-15.837675,-3.6736071)" />
    <g
       aria-label="V"
       transform="matrix(0.24283425,0,0,0.26909686,52.09681,-5.236462)"
       style="font-style:normal;font-weight:normal;font-size:40px;line-height:1.25;font-family:sans-serif;letter-spacing:0px;word-spacing:0px;fill:none;fill-opacity:1;stroke:#000000;stroke-width:0.39119267;stroke-miterlimit:4;stroke-dasharray:none;stroke-opacity:1"
       id="g4645" />
  </g>
</svg>
